<svg viewBox="0 0 80 80" fill="none" xmlns="http://www.w3.org/2000/svg">
  <!-- Couronne — branches typiques du baobab -->
  <ellipse cx="40" cy="28" rx="26" ry="17" fill="#00853F"/>
  <ellipse cx="19" cy="35" rx="15" ry="11" fill="#00853F"/>
  <ellipse cx="61" cy="35" rx="15" ry="11" fill="#00853F"/>
  <ellipse cx="29" cy="16" rx="14" ry="10" fill="#00853F"/>
  <ellipse cx="53" cy="16" rx="13" ry="9"  fill="#00853F"/>
  <ellipse cx="40" cy="10" rx="11" ry="8"  fill="#00853F"/>
  <!-- Tronc — massif, caractéristique du baobab -->
  <path d="M27 73 C21 68 23 54 25 44 L55 44 C57 54 59 68 53 73 Z" fill="#00853F" opacity="0.92"/>
  <!-- Racines étalées -->
  <path d="M27 73 Q16 72 10 77" stroke="#00853F" stroke-width="3.5" stroke-linecap="round"/>
  <path d="M53 73 Q64 72 70 77" stroke="#00853F" stroke-width="3.5" stroke-linecap="round"/>
  <path d="M34 75 Q28 77 26 80" stroke="#00853F" stroke-width="2.5" stroke-linecap="round"/>
  <path d="M46 75 Q52 77 54 80" stroke="#00853F" stroke-width="2.5" stroke-linecap="round"/>
</svg>
